<svg width="4359" height="2507" xmlns="http://www.w3.org/2000/svg" xmlns:xlink="http://www.w3.org/1999/xlink" xml:space="preserve" overflow="hidden"><defs><filter id="fx0" x="-10%" y="-10%" width="120%" height="120%" filterUnits="userSpaceOnUse" primitiveUnits="userSpaceOnUse"><feComponentTransfer color-interpolation-filters="sRGB"><feFuncR type="discrete" tableValues="0.937255 0.937255"/><feFuncG type="discrete" tableValues="0.870588 0.870588"/><feFuncB type="discrete" tableValues="0.803922 0.803922"/><feFuncA type="linear" slope="0.745098" intercept="0.000000"/></feComponentTransfer><feGaussianBlur stdDeviation="0.000000 0.000000"/></filter><filter id="fx1" x="-10%" y="-10%" width="120%" height="120%" filterUnits="userSpaceOnUse" primitiveUnits="userSpaceOnUse"><feComponentTransfer color-interpolation-filters="sRGB"><feFuncR type="discrete" tableValues="0.937255 0.937255"/><feFuncG type="discrete" tableValues="0.870588 0.870588"/><feFuncB type="discrete" tableValues="0.803922 0.803922"/><feFuncA type="linear" slope="1.000000" intercept="0.000000"/></feComponentTransfer><feGaussianBlur stdDeviation="12.685767 12.686084"/></filter><filter id="fx2" x="-10%" y="-10%" width="120%" height="120%" filterUnits="userSpaceOnUse" primitiveUnits="userSpaceOnUse"><feComponentTransfer color-interpolation-filters="sRGB"><feFuncR type="discrete" tableValues="0.184314 0.184314"/><feFuncG type="discrete" tableValues="0.533333 0.533333"/><feFuncB type="discrete" tableValues="0.537255 0.537255"/><feFuncA type="linear" slope="1.000000" intercept="0.000000"/></feComponentTransfer><feGaussianBlur stdDeviation="6.111111 6.111111"/></filter><filter id="fx3" x="-10%" y="-10%" width="120%" height="120%" filterUnits="userSpaceOnUse" primitiveUnits="userSpaceOnUse"><feComponentTransfer color-interpolation-filters="sRGB"><feFuncR type="discrete" tableValues="0.937255 0.937255"/><feFuncG type="discrete" tableValues="0.870588 0.870588"/><feFuncB type="discrete" tableValues="0.803922 0.803922"/><feFuncA type="linear" slope="0.960784" intercept="0.000000"/></feComponentTransfer><feGaussianBlur stdDeviation="6.111111 6.111111"/></filter><filter id="fx4" x="-10%" y="-10%" width="120%" height="120%" filterUnits="userSpaceOnUse" primitiveUnits="userSpaceOnUse"><feComponentTransfer color-interpolation-filters="sRGB"><feFuncR type="discrete" tableValues="0.937255 0.937255"/><feFuncG type="discrete" tableValues="0.870588 0.870588"/><feFuncB type="discrete" tableValues="0.803922 0.803922"/><feFuncA type="linear" slope="0.960784" intercept="0.000000"/></feComponentTransfer><feGaussianBlur stdDeviation="6.111111 6.111111"/></filter><filter id="fx5" x="-10%" y="-10%" width="120%" height="120%" filterUnits="userSpaceOnUse" primitiveUnits="userSpaceOnUse"><feComponentTransfer color-interpolation-filters="sRGB"><feFuncR type="discrete" tableValues="0.937255 0.937255"/><feFuncG type="discrete" tableValues="0.870588 0.870588"/><feFuncB type="discrete" tableValues="0.803922 0.803922"/><feFuncA type="linear" slope="0.960784" intercept="0.000000"/></feComponentTransfer><feGaussianBlur stdDeviation="6.111111 6.111111"/></filter><filter id="fx6" x="-10%" y="-10%" width="120%" height="120%" filterUnits="userSpaceOnUse" primitiveUnits="userSpaceOnUse"><feComponentTransfer color-interpolation-filters="sRGB"><feFuncR type="discrete" tableValues="0.937255 0.937255"/><feFuncG type="discrete" tableValues="0.870588 0.870588"/><feFuncB type="discrete" tableValues="0.803922 0.803922"/><feFuncA type="linear" slope="0.960784" intercept="0.000000"/></feComponentTransfer><feGaussianBlur stdDeviation="6.111111 6.111111"/></filter><filter id="fx7" x="-10%" y="-10%" width="120%" height="120%" filterUnits="userSpaceOnUse" primitiveUnits="userSpaceOnUse"><feComponentTransfer color-interpolation-filters="sRGB"><feFuncR type="discrete" tableValues="0.937255 0.937255"/><feFuncG type="discrete" tableValues="0.870588 0.870588"/><feFuncB type="discrete" tableValues="0.803922 0.803922"/><feFuncA type="linear" slope="0.960784" intercept="0.000000"/></feComponentTransfer><feGaussianBlur stdDeviation="6.111111 6.111111"/></filter><filter id="fx8" x="-10%" y="-10%" width="120%" height="120%" filterUnits="userSpaceOnUse" primitiveUnits="userSpaceOnUse"><feComponentTransfer color-interpolation-filters="sRGB"><feFuncR type="discrete" tableValues="0.937255 0.937255"/><feFuncG type="discrete" tableValues="0.870588 0.870588"/><feFuncB type="discrete" tableValues="0.803922 0.803922"/><feFuncA type="linear" slope="0.960784" intercept="0.000000"/></feComponentTransfer><feGaussianBlur stdDeviation="6.111111 6.111111"/></filter><filter id="fx9" x="-10%" y="-10%" width="120%" height="120%" filterUnits="userSpaceOnUse" primitiveUnits="userSpaceOnUse"><feComponentTransfer color-interpolation-filters="sRGB"><feFuncR type="discrete" tableValues="0.937255 0.937255"/><feFuncG type="discrete" tableValues="0.870588 0.870588"/><feFuncB type="discrete" tableValues="0.803922 0.803922"/><feFuncA type="linear" slope="0.960784" intercept="0.000000"/></feComponentTransfer><feGaussianBlur stdDeviation="6.111111 6.111111"/></filter><filter id="fx10" x="-10%" y="-10%" width="120%" height="120%" filterUnits="userSpaceOnUse" primitiveUnits="userSpaceOnUse"><feComponentTransfer color-interpolation-filters="sRGB"><feFuncR type="discrete" tableValues="0.937255 0.937255"/><feFuncG type="discrete" tableValues="0.870588 0.870588"/><feFuncB type="discrete" tableValues="0.803922 0.803922"/><feFuncA type="linear" slope="0.960784" intercept="0.000000"/></feComponentTransfer><feGaussianBlur stdDeviation="6.111111 6.111111"/></filter><clipPath id="clip11"><rect x="36" y="18" width="4359" height="2507"/></clipPath><clipPath id="clip12"><path d="M1746.04 1166.18C1756.89 1166.18 1766.2 1172.78 1770.17 1182.18L1771.02 1186.38 1763.81 1197.07C1756.7 1204.18 1747.56 1209.25 1737.32 1211.35L1729.37 1212.15 1727.51 1210.9C1722.77 1206.16 1719.84 1199.61 1719.84 1192.37 1719.84 1177.91 1731.57 1166.18 1746.04 1166.18ZM1726.77 1107.63C1734 1107.63 1740.89 1109.1 1747.16 1111.75L1752.37 1114.58 1745.85 1126.59C1731.73 1147.5 1707.81 1161.24 1680.69 1161.24L1674.5 1160.62 1674.38 1160.02C1674.38 1131.09 1697.83 1107.63 1726.77 1107.63ZM1680.69 1004.07C1696.96 1004.07 1712.08 1009.02 1724.63 1017.5L1728.56 1020.74 1707.33 1019.24C1697.65 1018.19 1688 1016.77 1678.4 1014.98L1653.29 1009.26 1664.85 1005.67C1669.97 1004.62 1675.26 1004.07 1680.69 1004.07ZM1198.54 134.798C1176.46 135.852 1154.3 140.222 1133.26 148.22 1109.97 157.075 1089.66 169.881 1073.88 185.654 1006.23 125.004 886.681 117.512 806.867 168.921 773.322 190.528 750.713 220.33 742.917 253.217 632.071 276.253 566.68 363.509 596.862 448.11 599.4 455.222 602.583 462.191 606.389 468.966 517.49 557.118 539.253 683.467 654.998 751.174 691.028 772.25 733.584 785.896 778.557 790.794 779.557 885.632 881.387 961.898 1006 961.137 1047.64 960.883 1088.37 951.867 1123.68 935.086 1165.83 1041.41 1312.85 1101.51 1452.06 1069.32 1510.4 1055.82 1560.81 1027.29 1594.69 988.586 1612.5 996.772 1630.98 1003.38 1649.85 1008.47L1653.29 1009.26 1650.1 1010.25C1621.9 1022.18 1602.11 1050.11 1602.11 1082.66 1602.11 1120.63 1629.04 1152.32 1664.85 1159.65L1674.5 1160.62 1678.49 1180.41C1686.45 1199.22 1705.07 1212.41 1726.77 1212.41L1729.37 1212.15 1735.84 1216.51C1738.97 1217.84 1742.42 1218.57 1746.04 1218.57 1760.5 1218.57 1772.23 1206.84 1772.23 1192.37L1771.02 1186.38 1775.04 1180.41C1777.69 1174.15 1779.16 1167.26 1779.16 1160.02 1779.16 1141.94 1769.99 1125.99 1756.06 1116.58L1752.37 1114.58 1753.1 1113.25C1757.07 1103.84 1759.27 1093.51 1759.27 1082.66 1759.27 1060.96 1750.48 1041.31 1736.26 1027.09L1728.56 1020.74 1736.42 1021.3C1843.14 1024.86 1948.99 984.802 2007.9 909.909 2008.98 908.536 2010.04 907.154 2011.08 905.765 2104.36 914.081 2188.86 863.381 2199.8 792.522 2205.64 754.753 2189.27 716.949 2155.06 689.185 2235.83 652.967 2262.96 573.47 2215.66 511.624 2188.37 475.944 2140.51 452.357 2086.8 448.116L2085.38 445.179C2104.99 335.398 2004.03 234.298 1859.89 219.365 1801.48 213.314 1742.1 222.36 1691.23 245.054 1637.34 167.684 1511.41 138.279 1409.95 179.377 1392.21 186.563 1375.93 195.672 1361.61 206.418 1330.13 158.317 1264.75 131.636 1198.54 134.798ZM36.0001 18 4395 18 4395 2525 36.0001 2525Z" fill-rule="evenodd" clip-rule="evenodd"/></clipPath><clipPath id="clip13"><rect x="0" y="0" width="1863" height="1199"/></clipPath><clipPath id="clip14"><rect x="0" y="0" width="1863" height="1199"/></clipPath><linearGradient x1="842.192" y1="3.04513" x2="842.192" y2="1087.07" gradientUnits="userSpaceOnUse" spreadMethod="reflect" id="fill15"><stop offset="0" stop-color="#2F8889" stop-opacity="1"/><stop offset="0.06" stop-color="#2F8889" stop-opacity="1"/><stop offset="0.46" stop-color="#000000" stop-opacity="1"/><stop offset="0.59" stop-color="#000000" stop-opacity="1"/><stop offset="0.8" stop-color="#2F8889" stop-opacity="1"/><stop offset="1" stop-color="#2F8889" stop-opacity="1"/></linearGradient><linearGradient x1="842.192" y1="3.04513" x2="842.192" y2="1087.07" gradientUnits="userSpaceOnUse" spreadMethod="reflect" id="fill16"><stop offset="0" stop-color="#2F8889" stop-opacity="1"/><stop offset="0.06" stop-color="#2F8889" stop-opacity="1"/><stop offset="0.46" stop-color="#000000" stop-opacity="1"/><stop offset="0.59" stop-color="#000000" stop-opacity="1"/><stop offset="0.8" stop-color="#2F8889" stop-opacity="1"/><stop offset="1" stop-color="#2F8889" stop-opacity="1"/></linearGradient><linearGradient x1="842.192" y1="3.04513" x2="842.192" y2="1087.07" gradientUnits="userSpaceOnUse" spreadMethod="reflect" id="fill17"><stop offset="0" stop-color="#2F8889" stop-opacity="1"/><stop offset="0.06" stop-color="#2F8889" stop-opacity="1"/><stop offset="0.46" stop-color="#000000" stop-opacity="1"/><stop offset="0.59" stop-color="#000000" stop-opacity="1"/><stop offset="0.8" stop-color="#2F8889" stop-opacity="1"/><stop offset="1" stop-color="#2F8889" stop-opacity="1"/></linearGradient><linearGradient x1="842.192" y1="3.04513" x2="842.192" y2="1087.07" gradientUnits="userSpaceOnUse" spreadMethod="reflect" id="fill18"><stop offset="0" stop-color="#2F8889" stop-opacity="1"/><stop offset="0.06" stop-color="#2F8889" stop-opacity="1"/><stop offset="0.46" stop-color="#000000" stop-opacity="1"/><stop offset="0.59" stop-color="#000000" stop-opacity="1"/><stop offset="0.8" stop-color="#2F8889" stop-opacity="1"/><stop offset="1" stop-color="#2F8889" stop-opacity="1"/></linearGradient><clipPath id="clip19"><rect x="-38.0573" y="-38.0583" width="556.115" height="374.117"/></clipPath><clipPath id="clip20"><rect x="0" y="0" width="480" height="298"/></clipPath><clipPath id="clip21"><rect x="-18.3333" y="-18.3333" width="756.667" height="682.667"/></clipPath><clipPath id="clip22"><rect x="0" y="0" width="720" height="646"/></clipPath><clipPath id="clip23"><path d="M3189.5 984.5 3270 1444.5 3350.5 984.5ZM36.0001 18 4395 18 4395 2525 36.0001 2525Z" fill-rule="evenodd" clip-rule="evenodd"/></clipPath><clipPath id="clip24"><rect x="-18.3333" y="-18.3333" width="284.667" height="671.667"/></clipPath><clipPath id="clip25"><rect x="0" y="0" width="248" height="635"/></clipPath><clipPath id="clip26"><path d="M3618.62 808.996 3509.44 924.84 3722.43 1016.21ZM36.0001 18 4395 18 4395 2525 36.0001 2525Z" fill-rule="evenodd" clip-rule="evenodd"/></clipPath><clipPath id="clip27"><rect x="-18.3333" y="-18.3333" width="353.667" height="346.667"/></clipPath><clipPath id="clip28"><rect x="0" y="0" width="317" height="310"/></clipPath><clipPath id="clip29"><path d="M2841.47 249.847 2941.92 458.707 3052.95 344.641ZM36.0001 18 4395 18 4395 2525 36.0001 2525Z" fill-rule="evenodd" clip-rule="evenodd"/></clipPath><clipPath id="clip30"><rect x="-18.3333" y="-18.3333" width="352.667" height="348.667"/></clipPath><clipPath id="clip31"><rect x="0" y="0" width="316" height="312"/></clipPath><clipPath id="clip32"><path d="M3657.41 217.607 3454.9 326.011 3575.88 432.349ZM36.0001 18 4395 18 4395 2525 36.0001 2525Z" fill-rule="evenodd" clip-rule="evenodd"/></clipPath><clipPath id="clip33"><rect x="-18.3333" y="-18.3333" width="340.667" height="356.667"/></clipPath><clipPath id="clip34"><rect x="0" y="0" width="304" height="320"/></clipPath><clipPath id="clip35"><path d="M2888.5 539.5 2670.5 619 2888.5 698.5ZM36.0001 18 4395 18 4395 2525 36.0001 2525Z" fill-rule="evenodd" clip-rule="evenodd"/></clipPath><clipPath id="clip36"><rect x="-18.3333" y="-18.3333" width="360.667" height="283.667"/></clipPath><clipPath id="clip37"><rect x="0" y="0" width="324" height="247"/></clipPath><clipPath id="clip38"><path d="M3644.5 539.5 3644.5 698.5 3861.5 619ZM36.0001 18 4395 18 4395 2525 36.0001 2525Z" fill-rule="evenodd" clip-rule="evenodd"/></clipPath><clipPath id="clip39"><rect x="-18.3333" y="-18.3333" width="359.667" height="283.667"/></clipPath><clipPath id="clip40"><rect x="0" y="0" width="323" height="247"/></clipPath><clipPath id="clip41"><path d="M3269 56.4999 3188.5 271.5 3349.5 271.5ZM36.0001 18 4395 18 4395 2525 36.0001 2525Z" fill-rule="evenodd" clip-rule="evenodd"/></clipPath><clipPath id="clip42"><rect x="-18.3333" y="-18.3333" width="286.667" height="356.667"/></clipPath><clipPath id="clip43"><rect x="0" y="0" width="250" height="320"/></clipPath><clipPath id="clip44"><path d="M2922.75 811.337 2833.97 1023.18 3040.05 921.726ZM36.0001 18 4395 18 4395 2525 36.0001 2525Z" fill-rule="evenodd" clip-rule="evenodd"/></clipPath><clipPath id="clip45"><rect x="-18.3333" y="-18.3333" width="344.667" height="352.667"/></clipPath><clipPath id="clip46"><rect x="0" y="0" width="308" height="316"/></clipPath></defs><g clip-path="url(#clip11)" transform="translate(-36 -18)"><path d="M1787.57 1397.2C1800.19 1397.2 1810.42 1397.2 1810.42 1397.2L1810.42 1794.2C1810.42 1794.2 1800.19 1794.2 1787.57 1794.2L1769.28 1794.2C1756.66 1794.2 1746.42 1794.2 1746.42 1794.2L1746.42 1397.2C1746.42 1397.2 1756.66 1397.2 1769.28 1397.2Z" fill="#1A1A1A" fill-rule="evenodd" fill-opacity="1"/><path d="M1796.71 1297.21C1804.28 1297.21 1810.42 1297.21 1810.42 1297.21L1810.42 1397.21C1810.42 1397.21 1804.28 1397.21 1796.71 1397.21L1760.14 1397.21C1752.56 1397.21 1746.42 1397.21 1746.42 1397.21L1746.42 1297.21C1746.42 1297.21 1752.56 1297.21 1760.14 1297.21Z" fill="#D4B46A" fill-rule="evenodd" fill-opacity="1"/><text fill="#222222" fill-opacity="1" font-family="Perpetua,Perpetua_MSFontService,sans-serif" font-style="normal" font-variant="normal" font-weight="400" font-stretch="normal" font-size="367" text-anchor="start" direction="ltr" writing-mode="lr-tb" unicode-bidi="normal" text-decoration="none" transform="matrix(1 0 0 1 447.953 1736)">M.A.</text><text fill="#222222" fill-opacity="1" font-family="Perpetua,Perpetua_MSFontService,sans-serif" font-style="normal" font-variant="normal" font-weight="400" font-stretch="normal" font-size="367" text-anchor="start" direction="ltr" writing-mode="lr-tb" unicode-bidi="normal" text-decoration="none" transform="matrix(1 0 0 1 1345.71 1736)">G</text><text fill="#222222" fill-opacity="1" font-family="Perpetua,Perpetua_MSFontService,sans-serif" font-style="normal" font-variant="normal" font-weight="400" font-stretch="normal" font-size="367" text-anchor="start" direction="ltr" writing-mode="lr-tb" unicode-bidi="normal" text-decoration="none" transform="matrix(1 0 0 1 447.953 2176)">.</text><text fill="#222222" fill-opacity="1" font-family="Perpetua,Perpetua_MSFontService,sans-serif" font-style="normal" font-variant="normal" font-weight="400" font-stretch="normal" font-size="367" text-anchor="start" direction="ltr" writing-mode="lr-tb" unicode-bidi="normal" text-decoration="none" transform="matrix(1 0 0 1 1896.95 1732)">.C</text><text fill="#222222" fill-opacity="1" font-family="Perpetua,Perpetua_MSFontService,sans-serif" font-style="normal" font-variant="normal" font-weight="400" font-stretch="normal" font-size="367" text-anchor="start" direction="ltr" writing-mode="lr-tb" unicode-bidi="normal" text-decoration="none" transform="matrix(1 0 0 1 2284.81 1732)">. </text><text fill="#222222" fill-opacity="1" font-family="Perpetua,Perpetua_MSFontService,sans-serif" font-style="normal" font-variant="normal" font-weight="400" font-stretch="normal" font-size="367" text-anchor="start" direction="ltr" writing-mode="lr-tb" unicode-bidi="normal" text-decoration="none" transform="matrix(1 0 0 1 2529.45 1732)">Med$ </text><text fill="#222222" fill-opacity="1" font-family="Perpetua,Perpetua_MSFontService,sans-serif" font-style="normal" font-variant="normal" font-weight="400" font-stretch="normal" font-size="367" text-anchor="start" direction="ltr" writing-mode="lr-tb" unicode-bidi="normal" text-decoration="none" transform="matrix(1 0 0 1 3516.58 1732)">Rx</text><text fill="#222222" fill-opacity="1" font-family="Perpetua,Perpetua_MSFontService,sans-serif" font-style="normal" font-variant="normal" font-weight="400" font-stretch="normal" font-size="119" text-anchor="start" direction="ltr" writing-mode="lr-tb" unicode-bidi="normal" text-decoration="none" transform="translate(3823.11 1597)">™</text><text fill="#222222" fill-opacity="1" font-family="Perpetua,Perpetua_MSFontService,sans-serif" font-style="normal" font-variant="normal" font-weight="400" font-stretch="normal" font-size="147" text-anchor="start" direction="ltr" writing-mode="lr-tb" unicode-bidi="normal" text-decoration="none" transform="matrix(1 0 0 1 353.776 2027)">MEDICATION ASSISTANCE </text><text fill="#222222" fill-opacity="1" font-family="Perpetua,Perpetua_MSFontService,sans-serif" font-style="normal" font-variant="normal" font-weight="400" font-stretch="normal" font-size="147" text-anchor="start" direction="ltr" writing-mode="lr-tb" unicode-bidi="normal" text-decoration="none" transform="matrix(1 0 0 1 2091.43 2027)">GUIDE </text><text fill="#222222" fill-opacity="1" font-family="Perpetua,Perpetua_MSFontService,sans-serif" font-style="normal" font-variant="normal" font-weight="400" font-stretch="normal" font-size="147" text-anchor="start" direction="ltr" writing-mode="lr-tb" unicode-bidi="normal" text-decoration="none" transform="matrix(1 0 0 1 2557.79 2027)">FOR IMPROVING CARE</text><text fill="#222222" fill-opacity="1" font-family="Perpetua,Perpetua_MSFontService,sans-serif" font-style="normal" font-variant="normal" font-weight="400" font-stretch="normal" font-size="92" text-anchor="start" direction="ltr" writing-mode="lr-tb" unicode-bidi="normal" text-decoration="none" transform="matrix(1 0 0 1 800.651 2266)">CHOOSE TO SHINE THROUGH THE CLOUD OF MEDICATION COST</text><path d="M40.9999 1853 4386 1853" stroke="#2F8889" stroke-width="13.75" stroke-linecap="butt" stroke-linejoin="miter" stroke-miterlimit="8" stroke-opacity="1" fill="none" fill-rule="evenodd"/><g clip-path="url(#clip12)"><g clip-path="url(#clip13)" filter="url(#fx0)" transform="translate(464 77)"><g clip-path="url(#clip14)"><path d="M167.33 345.046C145.762 224.288 256.814 113.077 415.372 96.6513 479.622 89.9952 544.946 99.9453 600.891 124.909 660.173 39.8018 798.701 7.45654 910.304 52.6643 929.819 60.5694 947.729 70.5886 963.477 82.4098 1009.65 11.8621 1122.11-16.7997 1214.66 18.3919 1240.28 28.132 1262.63 42.2187 1279.99 59.5697 1354.4-7.14599 1485.9-15.387 1573.7 41.1628 1610.6 64.9305 1635.47 97.7126 1644.04 133.888 1765.97 159.228 1837.9 255.21 1804.7 348.271 1801.91 356.094 1798.41 363.76 1794.22 371.212 1892.01 468.18 1868.07 607.164 1740.75 681.641 1701.12 704.825 1654.31 719.835 1604.84 725.223 1603.74 829.545 1491.72 913.437 1354.65 912.6 1308.85 912.321 1264.05 902.403 1225.2 883.945 1178.83 1000.9 1017.11 1067.01 863.984 1031.6 799.809 1016.76 744.361 985.371 707.096 942.795 550.311 1014.83 346.809 976.079 252.563 856.25 251.375 854.739 250.208 853.22 249.061 851.691 146.452 860.839 53.5076 805.069 41.4644 727.124 35.0452 685.578 53.0503 643.994 90.6817 613.453 1.83707 573.613-28.0075 486.166 24.0219 418.136 54.0384 378.888 106.684 352.942 165.769 348.277Z" fill="#FF0000" fill-rule="evenodd" fill-opacity="1" transform="matrix(-1 0 0 1 1857.72 -0.00553894)"/><path d="M569.424 1166.96C569.424 1182.88 556.524 1195.78 540.61 1195.78 524.697 1195.78 511.796 1182.88 511.796 1166.96 511.796 1151.05 524.697 1138.15 540.61 1138.15 556.524 1138.15 569.424 1151.05 569.424 1166.96Z" fill="#FF0000" fill-rule="evenodd" fill-opacity="1" transform="matrix(-1 0 0 1 1857.72 -0.00553894)"/><path d="M619.435 1131.37C619.435 1163.2 593.634 1189 561.807 1189 529.98 1189 504.179 1163.2 504.179 1131.37 504.179 1099.55 529.98 1073.75 561.807 1073.75 593.634 1073.75 619.435 1099.55 619.435 1131.37Z" fill="#FF0000" fill-rule="evenodd" fill-opacity="1" transform="matrix(-1 0 0 1 1857.72 -0.00553894)"/><path d="M698.934 1046.27C698.934 1094.01 660.233 1132.72 612.492 1132.72 564.752 1132.72 526.05 1094.01 526.05 1046.27 526.05 998.533 564.752 959.831 612.492 959.831 660.233 959.831 698.934 998.533 698.934 1046.27Z" fill="#FF0000" fill-rule="evenodd" fill-opacity="1" transform="matrix(-1 0 0 1 1857.72 -0.00553894)"/><path d="M167.33 345.046C145.762 224.288 256.814 113.077 415.372 96.6513 479.622 89.9952 544.946 99.9453 600.891 124.909 660.173 39.8018 798.701 7.45654 910.304 52.6643 929.819 60.5694 947.729 70.5886 963.477 82.4098 1009.65 11.8621 1122.11-16.7997 1214.66 18.3919 1240.28 28.132 1262.63 42.2187 1279.99 59.5697 1354.4-7.14599 1485.9-15.387 1573.7 41.1628 1610.6 64.9305 1635.47 97.7126 1644.04 133.888 1765.97 159.228 1837.9 255.21 1804.7 348.271 1801.91 356.094 1798.41 363.76 1794.22 371.212 1892.01 468.18 1868.07 607.164 1740.75 681.641 1701.12 704.825 1654.31 719.835 1604.84 725.223 1603.74 829.545 1491.72 913.437 1354.65 912.6 1308.85 912.321 1264.05 902.403 1225.2 883.945 1178.83 1000.9 1017.11 1067.01 863.984 1031.6 799.809 1016.76 744.361 985.371 707.096 942.795 550.311 1014.83 346.809 976.079 252.563 856.25 251.375 854.739 250.208 853.22 249.061 851.691 146.452 860.839 53.5076 805.069 41.4644 727.124 35.0452 685.578 53.0503 643.994 90.6817 613.453 1.83707 573.613-28.0075 486.166 24.0219 418.136 54.0384 378.888 106.684 352.942 165.769 348.277Z" stroke="#2F8889" stroke-width="5" stroke-linecap="butt" stroke-linejoin="miter" stroke-miterlimit="8" stroke-opacity="1" fill="none" fill-rule="evenodd" transform="matrix(-1 0 0 1 1857.72 -0.00553894)"/><path d="M569.424 1166.96C569.424 1182.88 556.524 1195.78 540.61 1195.78 524.697 1195.78 511.796 1182.88 511.796 1166.96 511.796 1151.05 524.697 1138.15 540.61 1138.15 556.524 1138.15 569.424 1151.05 569.424 1166.96Z" stroke="#2F8889" stroke-width="5" stroke-linecap="butt" stroke-linejoin="miter" stroke-miterlimit="8" stroke-opacity="1" fill="none" fill-rule="evenodd" transform="matrix(-1 0 0 1 1857.72 -0.00553894)"/><path d="M619.435 1131.37C619.435 1163.2 593.634 1189 561.807 1189 529.98 1189 504.179 1163.2 504.179 1131.37 504.179 1099.55 529.98 1073.75 561.807 1073.75 593.634 1073.75 619.435 1099.55 619.435 1131.37Z" stroke="#2F8889" stroke-width="5" stroke-linecap="butt" stroke-linejoin="miter" stroke-miterlimit="8" stroke-opacity="1" fill="none" fill-rule="evenodd" transform="matrix(-1 0 0 1 1857.72 -0.00553894)"/><path d="M698.934 1046.27C698.934 1094.01 660.233 1132.72 612.492 1132.72 564.752 1132.72 526.05 1094.01 526.05 1046.27 526.05 998.533 564.752 959.831 612.492 959.831 660.233 959.831 698.934 998.533 698.934 1046.27Z" stroke="#2F8889" stroke-width="5" stroke-linecap="butt" stroke-linejoin="miter" stroke-miterlimit="8" stroke-opacity="1" fill="none" fill-rule="evenodd" transform="matrix(-1 0 0 1 1857.72 -0.00553894)"/><path d="M201.354 628.551C163.424 630.813 125.499 624.135 92.6701 609.414M297.247 837.98C281.994 842.605 266.006 845.685 249.695 847.139M706.99 938.612C695.518 925.505 685.913 911.498 678.339 896.832M1236.83 834.426C1235.14 849.973 1231.3 865.34 1225.38 880.271M1464.31 551.162C1550.31 583.043 1604.58 649.7 1603.81 722.499M1793.35 368.674C1779.42 393.463 1758.16 415.454 1731.23 432.921M1644.29 130.287C1646.67 140.297 1647.77 150.458 1647.57 160.629M1247.59 94.8937C1255.69 80.8954 1266.41 67.8615 1279.42 56.1979M949.962 113.335C953.264 101.766 958.441 90.5562 965.374 79.9623M600.671 124.668C620.914 133.701 639.642 144.573 656.442 157.045M177.069 379.119C172.651 367.977 169.396 356.587 167.336 345.055" stroke="#2F8889" stroke-width="5" stroke-linecap="butt" stroke-linejoin="miter" stroke-miterlimit="8" stroke-opacity="1" fill="none" fill-rule="evenodd" transform="matrix(-1 0 0 1 1857.72 -0.00553894)"/></g></g></g><path d="M152.118 313.678C132.511 203.898 233.468 102.798 377.611 87.8648 436.02 81.8138 495.405 90.8594 546.265 113.554 600.157 36.1834 726.092 6.77867 827.549 47.8766 845.29 55.0631 861.572 64.1714 875.888 74.918 917.861 10.7837 1020.1-15.2725 1104.24 16.7199 1127.53 25.5746 1147.84 38.3807 1163.62 54.1542 1231.27-6.49636 1350.82-13.9882 1430.63 37.4207 1464.18 59.0277 1486.79 88.8296 1494.58 121.717 1605.43 144.753 1670.82 232.009 1640.64 316.61 1638.1 323.722 1634.92 330.691 1631.11 337.466 1720.01 425.618 1698.25 551.967 1582.5 619.673 1546.47 640.75 1503.92 654.395 1458.94 659.293 1457.94 754.132 1356.11 830.397 1231.5 829.637 1189.86 829.382 1149.13 820.366 1113.82 803.586 1071.67 909.912 924.648 970.009 785.44 937.816 727.099 924.324 676.692 895.792 642.815 857.086 500.283 922.57 315.281 887.344 229.602 778.409 228.523 777.036 227.462 775.654 226.42 774.264 133.138 782.581 48.6433 731.88 37.6949 661.022 31.8592 623.252 48.2276 585.449 82.4379 557.685 1.67006 521.466-25.4614 441.969 21.8381 380.123 49.1259 344.443 96.9851 320.856 150.699 316.615Z" fill="url(#fill15)" fill-rule="evenodd" transform="matrix(-1 0 0 1 2237.5 131.5)"/><path d="M517.658 1060.87C517.658 1075.34 505.931 1087.07 491.464 1087.07 476.997 1087.07 465.269 1075.34 465.269 1060.87 465.269 1046.41 476.997 1034.68 491.464 1034.68 505.931 1034.68 517.658 1046.41 517.658 1060.87Z" fill="url(#fill16)" fill-rule="evenodd" transform="matrix(-1 0 0 1 2237.5 131.5)"/><path d="M563.122 1028.52C563.122 1057.46 539.667 1080.91 510.733 1080.91 481.8 1080.91 458.344 1057.46 458.344 1028.52 458.344 999.588 481.8 976.132 510.733 976.132 539.667 976.132 563.122 999.588 563.122 1028.52Z" fill="url(#fill17)" fill-rule="evenodd" transform="matrix(-1 0 0 1 2237.5 131.5)"/><path d="M635.395 951.158C635.395 994.558 600.212 1029.74 556.811 1029.74 513.411 1029.74 478.227 994.558 478.227 951.158 478.227 907.757 513.411 872.574 556.811 872.574 600.212 872.574 635.395 907.757 635.395 951.158Z" fill="url(#fill18)" fill-rule="evenodd" transform="matrix(-1 0 0 1 2237.5 131.5)"/><path d="M152.118 313.678C132.511 203.898 233.468 102.798 377.611 87.8648 436.02 81.8138 495.405 90.8594 546.265 113.554 600.157 36.1834 726.092 6.77867 827.549 47.8766 845.29 55.0631 861.572 64.1714 875.888 74.918 917.861 10.7837 1020.1-15.2725 1104.24 16.7199 1127.53 25.5746 1147.84 38.3807 1163.62 54.1542 1231.27-6.49636 1350.82-13.9882 1430.63 37.4207 1464.18 59.0277 1486.79 88.8296 1494.58 121.717 1605.43 144.753 1670.82 232.009 1640.64 316.61 1638.1 323.722 1634.92 330.691 1631.11 337.466 1720.01 425.618 1698.25 551.967 1582.5 619.673 1546.47 640.75 1503.92 654.395 1458.94 659.293 1457.94 754.132 1356.11 830.397 1231.5 829.637 1189.86 829.382 1149.13 820.366 1113.82 803.586 1071.67 909.912 924.648 970.009 785.44 937.816 727.099 924.324 676.692 895.792 642.815 857.086 500.283 922.57 315.281 887.344 229.602 778.409 228.523 777.036 227.462 775.654 226.42 774.264 133.138 782.581 48.6433 731.88 37.6949 661.022 31.8592 623.252 48.2276 585.449 82.4379 557.685 1.67006 521.466-25.4614 441.969 21.8381 380.123 49.1259 344.443 96.9851 320.856 150.699 316.615Z" stroke="#2F8889" stroke-width="4.58333" stroke-linecap="butt" stroke-linejoin="miter" stroke-miterlimit="8" stroke-opacity="1" fill="none" fill-rule="evenodd" transform="matrix(-1 0 0 1 2237.5 131.5)"/><path d="M517.658 1060.87C517.658 1075.34 505.931 1087.07 491.464 1087.07 476.997 1087.07 465.269 1075.34 465.269 1060.87 465.269 1046.41 476.997 1034.68 491.464 1034.68 505.931 1034.68 517.658 1046.41 517.658 1060.87Z" stroke="#2F8889" stroke-width="4.58333" stroke-linecap="butt" stroke-linejoin="miter" stroke-miterlimit="8" stroke-opacity="1" fill="none" fill-rule="evenodd" transform="matrix(-1 0 0 1 2237.5 131.5)"/><path d="M563.122 1028.52C563.122 1057.46 539.667 1080.91 510.733 1080.91 481.8 1080.91 458.344 1057.46 458.344 1028.52 458.344 999.588 481.8 976.132 510.733 976.132 539.667 976.132 563.122 999.588 563.122 1028.52Z" stroke="#2F8889" stroke-width="4.58333" stroke-linecap="butt" stroke-linejoin="miter" stroke-miterlimit="8" stroke-opacity="1" fill="none" fill-rule="evenodd" transform="matrix(-1 0 0 1 2237.5 131.5)"/><path d="M635.395 951.158C635.395 994.558 600.212 1029.74 556.811 1029.74 513.411 1029.74 478.227 994.558 478.227 951.158 478.227 907.757 513.411 872.574 556.811 872.574 600.212 872.574 635.395 907.757 635.395 951.158Z" stroke="#2F8889" stroke-width="4.58333" stroke-linecap="butt" stroke-linejoin="miter" stroke-miterlimit="8" stroke-opacity="1" fill="none" fill-rule="evenodd" transform="matrix(-1 0 0 1 2237.5 131.5)"/><path d="M183.049 571.41C148.568 573.466 114.09 567.395 84.2456 554.012M270.224 761.8C256.358 766.005 241.824 768.804 226.996 770.126M642.718 853.284C632.289 841.368 623.557 828.635 616.672 815.302M1124.39 758.569C1122.85 772.703 1119.37 786.673 1113.99 800.246M1331.19 501.056C1409.37 530.039 1458.71 590.636 1458.01 656.818M1630.32 335.158C1617.65 357.694 1598.33 377.685 1573.85 393.565M1494.81 118.443C1496.97 127.543 1497.97 136.78 1497.79 146.027M1134.18 86.267C1141.53 73.5412 1151.28 61.6923 1163.11 51.089M863.602 103.031C866.603 92.5149 871.31 82.3238 877.613 72.693M546.065 113.335C564.467 121.546 581.492 131.43 596.766 142.768M160.972 344.653C156.955 334.525 153.996 324.17 152.124 313.686" stroke="#2F8889" stroke-width="4.58333" stroke-linecap="butt" stroke-linejoin="miter" stroke-miterlimit="8" stroke-opacity="1" fill="none" fill-rule="evenodd" transform="matrix(-1 0 0 1 2237.5 131.5)"/><g clip-path="url(#clip19)" filter="url(#fx1)" transform="matrix(2.80208 0 0 2.80201 813 130)"><g clip-path="url(#clip20)" transform="translate(-5.68434e-14 0)"><path d="M120.5 195.526C98.9584 219.567 89.4665 246.199 99.2989 255.009 109.131 263.82 134.565 251.472 156.106 227.43L120.5 195.526Z" stroke="#2F8889" stroke-width="3.22037" stroke-linecap="butt" stroke-linejoin="miter" stroke-miterlimit="8" stroke-opacity="1" fill="none" fill-rule="evenodd"/><path d="M121.004 195.17C142.545 171.129 167.979 158.781 177.811 167.591 187.644 176.402 178.152 203.033 156.61 227.075L121.004 195.17Z" stroke="#EFDECD" stroke-width="3.22037" stroke-linecap="butt" stroke-linejoin="miter" stroke-miterlimit="8" stroke-opacity="1" fill="none" fill-rule="evenodd"/><path d="M216.901 71.0939C195.36 95.1356 185.868 121.767 195.7 130.578 205.533 139.388 230.966 127.04 252.507 102.999L216.901 71.0939Z" stroke="#2F8889" stroke-width="3.22037" stroke-linecap="butt" stroke-linejoin="miter" stroke-miterlimit="8" stroke-opacity="1" fill="none" fill-rule="evenodd"/><path d="M217.405 70.7386C238.947 46.6969 264.38 34.3494 274.213 43.1597 284.045 51.97 274.553 78.6017 253.012 102.643L217.405 70.7386Z" stroke="#EFDECD" stroke-width="3.22037" stroke-linecap="butt" stroke-linejoin="miter" stroke-miterlimit="8" stroke-opacity="1" fill="none" fill-rule="evenodd"/><path d="M378.831 122.641C357.29 146.682 347.798 173.314 357.63 182.124 367.462 190.935 392.896 178.587 414.437 154.546L378.831 122.641Z" stroke="#2F8889" stroke-width="3.22037" stroke-linecap="butt" stroke-linejoin="miter" stroke-miterlimit="8" stroke-opacity="1" fill="none" fill-rule="evenodd"/><path d="M379.335 122.285C400.877 98.2436 426.31 85.8962 436.142 94.7065 445.975 103.517 436.483 130.148 414.941 154.19L379.335 122.285Z" stroke="#EFDECD" stroke-width="3.22037" stroke-linecap="butt" stroke-linejoin="miter" stroke-miterlimit="8" stroke-opacity="1" fill="none" fill-rule="evenodd"/><path d="M259.165 176.226C237.624 200.268 228.132 226.9 237.964 235.71 247.797 244.52 273.23 232.173 294.772 208.131L259.165 176.226Z" stroke="#2F8889" stroke-width="3.22037" stroke-linecap="butt" stroke-linejoin="miter" stroke-miterlimit="8" stroke-opacity="1" fill="none" fill-rule="evenodd"/><path d="M259.67 175.871C281.211 151.829 306.644 139.482 316.477 148.292 326.309 157.102 316.817 183.734 295.276 207.776L259.67 175.871Z" stroke="#EFDECD" stroke-width="3.22037" stroke-linecap="butt" stroke-linejoin="miter" stroke-miterlimit="8" stroke-opacity="1" fill="none" fill-rule="evenodd"/><path d="M65.1259 98.0353C43.5845 122.077 34.0925 148.709 43.925 157.519 53.7574 166.329 79.1909 153.982 100.732 129.94L65.1259 98.0353Z" stroke="#2F8889" stroke-width="3.22037" stroke-linecap="butt" stroke-linejoin="miter" stroke-miterlimit="8" stroke-opacity="1" fill="none" fill-rule="evenodd"/><path d="M65.6301 97.6801C87.1715 73.6383 112.605 61.2909 122.437 70.1012 132.27 78.9115 122.778 105.543 101.236 129.585L65.6301 97.6801Z" stroke="#EFDECD" stroke-width="3.22037" stroke-linecap="butt" stroke-linejoin="miter" stroke-miterlimit="8" stroke-opacity="1" fill="none" fill-rule="evenodd"/></g></g><path d="M1127 679.93C1065.68 748.364 1038.66 824.171 1066.65 849.249 1094.64 874.328 1167.04 839.181 1228.36 770.747L1127 679.93Z" stroke="#2F8889" stroke-width="9.16667" stroke-linecap="butt" stroke-linejoin="miter" stroke-miterlimit="8" stroke-opacity="1" fill="none" fill-rule="evenodd"/><path d="M1128.44 678.919C1189.76 610.485 1262.15 575.338 1290.14 600.416 1318.13 625.494 1291.11 701.301 1229.79 769.735L1128.44 678.919Z" stroke="#EFDECD" stroke-width="9.16667" stroke-linecap="butt" stroke-linejoin="miter" stroke-miterlimit="8" stroke-opacity="1" fill="none" fill-rule="evenodd"/><path d="M1401.41 325.738C1340.09 394.173 1313.08 469.979 1341.06 495.058 1369.05 520.136 1441.45 484.989 1502.77 416.555L1401.41 325.738Z" stroke="#2F8889" stroke-width="9.16667" stroke-linecap="butt" stroke-linejoin="miter" stroke-miterlimit="8" stroke-opacity="1" fill="none" fill-rule="evenodd"/><path d="M1402.85 324.727C1464.17 256.293 1536.56 221.146 1564.55 246.224 1592.54 271.303 1565.52 347.109 1504.2 415.544L1402.85 324.727Z" stroke="#EFDECD" stroke-width="9.16667" stroke-linecap="butt" stroke-linejoin="miter" stroke-miterlimit="8" stroke-opacity="1" fill="none" fill-rule="evenodd"/><path d="M1862.35 472.465C1801.04 540.899 1774.02 616.706 1802 641.784 1829.99 666.862 1902.39 631.716 1963.71 563.281L1862.35 472.465Z" stroke="#2F8889" stroke-width="9.16667" stroke-linecap="butt" stroke-linejoin="miter" stroke-miterlimit="8" stroke-opacity="1" fill="none" fill-rule="evenodd"/><path d="M1863.79 471.454C1925.11 403.02 1997.51 367.873 2025.49 392.951 2053.48 418.029 2026.46 493.836 1965.14 562.27L1863.79 471.454Z" stroke="#EFDECD" stroke-width="9.16667" stroke-linecap="butt" stroke-linejoin="miter" stroke-miterlimit="8" stroke-opacity="1" fill="none" fill-rule="evenodd"/><path d="M1521.72 624.995C1460.4 693.429 1433.38 769.236 1461.37 794.314 1489.36 819.392 1561.76 784.245 1623.08 715.811L1521.72 624.995Z" stroke="#2F8889" stroke-width="9.16667" stroke-linecap="butt" stroke-linejoin="miter" stroke-miterlimit="8" stroke-opacity="1" fill="none" fill-rule="evenodd"/><path d="M1523.16 623.983C1584.47 555.549 1656.87 520.403 1684.86 545.481 1712.85 570.559 1685.83 646.366 1624.51 714.8L1523.16 623.983Z" stroke="#EFDECD" stroke-width="9.16667" stroke-linecap="butt" stroke-linejoin="miter" stroke-miterlimit="8" stroke-opacity="1" fill="none" fill-rule="evenodd"/><path d="M969.378 402.427C908.059 470.861 881.04 546.667 909.028 571.746 937.017 596.824 1009.41 561.677 1070.73 493.243L969.378 402.427Z" stroke="#2F8889" stroke-width="9.16667" stroke-linecap="butt" stroke-linejoin="miter" stroke-miterlimit="8" stroke-opacity="1" fill="none" fill-rule="evenodd"/><path d="M970.813 401.415C1032.13 332.981 1104.53 297.834 1132.52 322.913 1160.51 347.991 1133.49 423.798 1072.17 492.232L970.813 401.415Z" stroke="#EFDECD" stroke-width="9.16667" stroke-linecap="butt" stroke-linejoin="miter" stroke-miterlimit="8" stroke-opacity="1" fill="none" fill-rule="evenodd"/><g clip-path="url(#clip21)" filter="url(#fx2)" transform="translate(2913 314)"><g clip-path="url(#clip22)"><path d="M358.939 23.0084C173.386 23.0084 22.9661 157.312 22.9661 322.984 22.9661 488.656 173.386 622.959 358.939 622.959L358.939 23.0084Z" stroke="#2F8889" stroke-width="6" stroke-linecap="butt" stroke-linejoin="miter" stroke-miterlimit="8" stroke-opacity="1" fill="#EFDECD" fill-rule="evenodd" fill-opacity="1"/><path d="M362.756 24.6445C547.707 24.6445 697.638 158.948 697.638 324.62 697.638 490.292 547.707 624.595 362.756 624.595L362.756 24.6445Z" stroke="#EFDECD" stroke-width="4" stroke-linecap="butt" stroke-linejoin="miter" stroke-miterlimit="8" stroke-opacity="1" fill="#2F8889" fill-rule="evenodd" fill-opacity="1"/></g></g><path d="M3272 362C3101.9 362 2964 485.122 2964 637 2964 788.879 3101.9 912 3272 912L3272 362Z" stroke="#2F8889" stroke-width="5.72917" stroke-linecap="butt" stroke-linejoin="miter" stroke-miterlimit="8" stroke-opacity="1" fill="#EFDECD" fill-rule="evenodd" fill-opacity="1"/><path d="M3275.5 363.5C3445.05 363.5 3582.5 486.622 3582.5 638.5 3582.5 790.378 3445.05 913.5 3275.5 913.5L3275.5 363.5Z" stroke="#EFDECD" stroke-width="3.4375" stroke-linecap="butt" stroke-linejoin="miter" stroke-miterlimit="8" stroke-opacity="1" fill="#2F8889" fill-rule="evenodd" fill-opacity="1"/><g clip-path="url(#clip23)"><g clip-path="url(#clip24)" filter="url(#fx3)" transform="translate(3146 921)"><g clip-path="url(#clip25)"><path d="M224.729 22.6543 124 598.248 23.2712 22.6543Z" stroke="#2F528F" stroke-width="6" stroke-linecap="butt" stroke-linejoin="miter" stroke-miterlimit="8" stroke-opacity="1" fill="#2F8889" fill-rule="evenodd" fill-opacity="1"/></g></g></g><path d="M3350.5 984.5 3270 1444.5 3189.5 984.5Z" stroke="#2F528F" stroke-width="4.58333" stroke-linecap="butt" stroke-linejoin="miter" stroke-miterlimit="8" stroke-opacity="1" fill="#2F8889" fill-rule="evenodd" fill-opacity="1"/><g clip-path="url(#clip26)"><g clip-path="url(#clip27)" filter="url(#fx4)" transform="translate(3458 776)"><g clip-path="url(#clip28)"><path d="M161.174 25.2165 291.073 284.497 24.5588 170.171Z" stroke="#2F528F" stroke-width="5.73508" stroke-linecap="butt" stroke-linejoin="miter" stroke-miterlimit="8" stroke-opacity="1" fill="#2F8889" fill-rule="evenodd" fill-opacity="1"/></g></g></g><path d="M3618.62 808.996 3722.43 1016.21 3509.44 924.84Z" stroke="#2F528F" stroke-width="4.58333" stroke-linecap="butt" stroke-linejoin="miter" stroke-miterlimit="8" stroke-opacity="1" fill="#2F8889" fill-rule="evenodd" fill-opacity="1"/><g clip-path="url(#clip29)"><g clip-path="url(#clip30)" filter="url(#fx5)" transform="translate(2789 216)"><g clip-path="url(#clip31)"><path d="M151.696 287.371 26.0004 26.0265 290.634 144.641Z" stroke="#2F528F" stroke-width="5.73508" stroke-linecap="butt" stroke-linejoin="miter" stroke-miterlimit="8" stroke-opacity="1" fill="#2F8889" fill-rule="evenodd" fill-opacity="1"/></g></g></g><path d="M2941.92 458.707 2841.47 249.847 3052.95 344.641Z" stroke="#2F528F" stroke-width="4.58333" stroke-linecap="butt" stroke-linejoin="miter" stroke-miterlimit="8" stroke-opacity="1" fill="#2F8889" fill-rule="evenodd" fill-opacity="1"/><g clip-path="url(#clip32)"><g clip-path="url(#clip33)" filter="url(#fx6)" transform="translate(3404 183)"><g clip-path="url(#clip34)"><path d="M25.4202 161.73 278.818 26.0852 176.801 294.79Z" stroke="#2F528F" stroke-width="5.73508" stroke-linecap="butt" stroke-linejoin="miter" stroke-miterlimit="8" stroke-opacity="1" fill="#2F8889" fill-rule="evenodd" fill-opacity="1"/></g></g></g><path d="M3454.9 326.011 3657.41 217.607 3575.88 432.349Z" stroke="#2F528F" stroke-width="4.58333" stroke-linecap="butt" stroke-linejoin="miter" stroke-miterlimit="8" stroke-opacity="1" fill="#2F8889" fill-rule="evenodd" fill-opacity="1"/><g clip-path="url(#clip35)"><g clip-path="url(#clip36)" filter="url(#fx7)" transform="translate(2615 514)"><g clip-path="url(#clip37)"><path d="M301.443 222.811 28.6619 123.333 301.443 23.8558Z" stroke="#2F528F" stroke-width="6" stroke-linecap="butt" stroke-linejoin="miter" stroke-miterlimit="8" stroke-opacity="1" fill="#2F8889" fill-rule="evenodd" fill-opacity="1"/></g></g></g><path d="M2888.5 698.5 2670.5 619 2888.5 539.5Z" stroke="#2F528F" stroke-width="4.58333" stroke-linecap="butt" stroke-linejoin="miter" stroke-miterlimit="8" stroke-opacity="1" fill="#2F8889" fill-rule="evenodd" fill-opacity="1"/><g clip-path="url(#clip38)"><g clip-path="url(#clip39)" filter="url(#fx8)" transform="translate(3594 514)"><g clip-path="url(#clip40)"><path d="M22.686 23.8556 294.216 123.333 22.686 222.811Z" stroke="#2F528F" stroke-width="6" stroke-linecap="butt" stroke-linejoin="miter" stroke-miterlimit="8" stroke-opacity="1" fill="#2F8889" fill-rule="evenodd" fill-opacity="1"/></g></g></g><path d="M3644.5 539.5 3861.5 619 3644.5 698.5Z" stroke="#2F528F" stroke-width="4.58333" stroke-linecap="butt" stroke-linejoin="miter" stroke-miterlimit="8" stroke-opacity="1" fill="#2F8889" fill-rule="evenodd" fill-opacity="1"/><g clip-path="url(#clip41)"><g clip-path="url(#clip42)" filter="url(#fx9)" transform="translate(3144 20)"><g clip-path="url(#clip43)"><path d="M24.2712 297.38 125 28.3527 225.729 297.38Z" stroke="#2F528F" stroke-width="6" stroke-linecap="butt" stroke-linejoin="miter" stroke-miterlimit="8" stroke-opacity="1" fill="#2F8889" fill-rule="evenodd" fill-opacity="1"/></g></g></g><path d="M3188.5 271.5 3269 56.4999 3349.5 271.5Z" stroke="#2F528F" stroke-width="4.58333" stroke-linecap="butt" stroke-linejoin="miter" stroke-miterlimit="8" stroke-opacity="1" fill="#2F8889" fill-rule="evenodd" fill-opacity="1"/><g clip-path="url(#clip44)"><g clip-path="url(#clip45)" filter="url(#fx10)" transform="translate(2783 778)"><g clip-path="url(#clip46)"><path d="M283.005 163.077 25.1439 290.031 136.235 24.9489Z" stroke="#2F528F" stroke-width="5.73508" stroke-linecap="butt" stroke-linejoin="miter" stroke-miterlimit="8" stroke-opacity="1" fill="#2F8889" fill-rule="evenodd" fill-opacity="1"/></g></g></g><path d="M3040.05 921.726 2833.97 1023.18 2922.75 811.337Z" stroke="#2F528F" stroke-width="4.58333" stroke-linecap="butt" stroke-linejoin="miter" stroke-miterlimit="8" stroke-opacity="1" fill="#2F8889" fill-rule="evenodd" fill-opacity="1"/></g></svg>